Coordinates
version=1
nRows=5
nColumns=40
inDegrees=yes

Units are S.I. units (second, meters, Newtons, ...)
Angles are in degrees.

endheader
time	pelvis_tilt	pelvis_list	pelvis_rotation	pelvis_tx	pelvis_ty	pelvis_tz	hip_flexion_r	hip_adduction_r	hip_rotation_r	knee_angle_r	knee_angle_r_beta	ankle_angle_r	subtalar_angle_r	mtp_angle_r	hip_flexion_l	hip_adduction_l	hip_rotation_l	knee_angle_l	knee_angle_l_beta	ankle_angle_l	subtalar_angle_l	mtp_angle_l	lumbar_extension	lumbar_bending	lumbar_rotation	arm_flex_r	arm_add_r	arm_rot_r	elbow_flex_r	pro_sup_r	wrist_flex_r	wrist_dev_r	arm_flex_l	arm_add_l	arm_rot_l	elbow_flex_l	pro_sup_l	wrist_flex_l	wrist_dev_l
     49.45000000	     -5.62772066	     -4.72435960	      1.81629466	      1.04616528	      0.93104473	      0.45541585	     31.89421844	     -8.41511060	     -5.91251438	     71.62134519	     71.62134519	     -2.60382377	    -18.23680430	      4.54645419	     16.63575456	     -4.65688472	     -4.11302313	     23.85314683	     23.85314683	     15.13955198	     -6.33751024	      2.28564643	    -11.93724295	      5.91581318	      2.48104329	     11.45933952	    -13.06051328	      2.00321183	     37.30960695	     45.95876663	      0.00000000	      0.00000000	      4.98504612	    -13.92229596	     -2.40422624	     60.31958301	     46.77157037	      0.00000000	      0.00000000
     49.46257143	     -5.64887249	     -4.67883024	      1.60140851	      1.04505156	      0.93207027	      0.45527204	     33.38866952	     -8.31361498	     -5.63128754	     70.70423107	     70.70423107	     -2.50617479	    -17.72228619	      4.13161184	     15.64919104	     -4.59193601	     -4.30265538	     22.95481985	     22.95481985	     15.28488514	     -6.20498949	      2.49933507	    -12.04133541	      5.86857372	      2.64109210	      9.22187687	    -13.63157639	      2.00444947	     35.71967060	     46.00345345	      0.00000000	      0.00000000	      6.27757826	    -14.16994440	     -2.85414351	     61.88496111	     46.84349775	      0.00000000	      0.00000000
     49.47514286	     -5.71387680	     -4.75787369	      1.48923061	      1.04386754	      0.93281722	      0.45517695	     34.77476708	     -8.12488317	     -5.54248836	     69.57800150	     69.57800150	     -2.35532008	    -17.19670627	      3.96952626	     14.90563762	     -4.67705392	     -4.42428084	     22.37092229	     22.37092229	     15.45835942	     -6.01774883	      2.53775096	    -12.05409715	      5.99214239	      2.05075997	      7.26038313	    -13.92601942	      1.97707005	     34.75417590	     46.02839644	      0.00000000	      0.00000000	      7.32279619	    -14.96818594	     -3.29478264	     62.75580807	     46.89828412	      0.00000000	      0.00000000
     49.48771429	     -5.62200407	     -4.62762508	      1.23806896	      1.04295206	      0.93384434	      0.45513562	     35.81126930	     -8.09809260	     -5.27633633	     68.09174902	     68.09174902	     -2.78872931	    -16.72220084	      2.21420652	     13.65716679	     -4.52734267	     -4.75863599	     21.21577045	     21.21577045	     15.39819917	     -5.78385371	      2.26948679	    -12.38343944	      5.77225520	      2.21662212	      5.68132047	    -14.09894268	      0.81221579	     31.58468674	     46.21345454	      0.00000000	      0.00000000	      7.55305087	    -15.18567950	     -4.14708481	     67.50426760	     47.06273721	      0.00000000	      0.00000000
     49.50028571	     -5.52522798	     -4.53723940	      1.06171928	      1.04205789	      0.93475304	      0.45518145	     36.71425773	     -8.01332197	     -5.07698564	     66.40251981	     66.40251981	     -2.72063939	    -16.16955506	      2.07280617	     12.48869645	     -4.42153737	     -5.04319089	     20.18933569	     20.18933569	     15.47021488	     -5.43009481	      2.32782220	    -12.61741937	      5.67135344	      2.26998322	      3.66171005	    -14.45527045	      0.55359732	     30.16040143	     46.27157142	      0.00000000	      0.00000000	      8.79053004	    -15.41963651	     -4.86762013	     69.07088684	     47.15417523	      0.00000000	      0.00000000
